<svg width="14" height="14" viewBox="0 0 14 14" fill="none" xmlns="http://www.w3.org/2000/svg">
<path fill-rule="evenodd" clip-rule="evenodd" d="M9.22375 8.69125H9.81625L13.5587 12.4413L12.4412 13.5588L8.69125 9.81625V9.22375L8.48875 9.01375C7.63375 9.74875 6.52375 10.1913 5.31625 10.1913C2.62375 10.1913 0.441246 8.00875 0.441246 5.31625C0.441246 2.62375 2.62375 0.441254 5.31625 0.441254C8.00875 0.441254 10.1912 2.62375 10.1912 5.31625C10.1912 6.52375 9.74875 7.63375 9.01375 8.48875L9.22375 8.69125ZM1.94125 5.31625C1.94125 7.18375 3.44875 8.69125 5.31625 8.69125C7.18375 8.69125 8.69125 7.18375 8.69125 5.31625C8.69125 3.44875 7.18375 1.94125 5.31625 1.94125C3.44875 1.94125 1.94125 3.44875 1.94125 5.31625Z" fill="white" fill-opacity="0.5"/>
</svg>
